<?xml version="1.0" encoding="UTF-8"?>
<svg id="Layer_1" data-name="Layer 1" xmlns="http://www.w3.org/2000/svg" viewBox="0 0 1000 1000">
  <defs>
    <style>
      .cls-1 {
        fill: #f05058;
      }

      .cls-2 {
        fill: #313131;
      }
    </style>
  </defs>
  <g>
    <g id="_Radial_Repeat_" data-name="&amp;lt;Radial Repeat&amp;gt;">
      <path class="cls-2" d="M488.14,893.94c-24.05,26.86-37.2,61.19-37.21,97.52v8.53l97.86.02v-8.53c.02-36.33-13.11-70.64-37.16-97.52,61.77-67.84,59.88-173.29-5.65-238.87l-6.02-6.02-6.04,6.02c-32.71,32.69-50.74,76.17-50.74,122.42-.02,43.47,15.88,84.51,44.96,116.43ZM468.26,982.93c1.84-28.43,12.86-55.1,31.64-76.54,18.74,21.45,29.74,48.13,31.57,76.56l-63.2-.02ZM499.89,881.51c-25.65-28.63-39.67-65.25-39.65-104,0-38.75,14.05-75.35,39.7-103.98,52.8,59.06,52.78,148.95-.05,207.98Z"/>
    </g>
    <g id="_Radial_Repeat_-2" data-name="&amp;lt;Radial Repeat&amp;gt;">
      <path class="cls-2" d="M213.06,770.17c-36,1.99-69.57,16.97-95.27,42.64l-6.03,6.03,69.18,69.21,6.03-6.03c25.7-25.67,40.68-59.22,42.68-95.23,91.65-4.29,164.88-80.19,164.91-172.9v-8.51h-8.53c-46.25-.02-89.73,17.97-122.44,50.67-30.75,30.73-48.53,70.98-50.54,114.12ZM136.07,819.04c21.41-18.8,48.06-29.87,76.49-31.75-1.92,28.42-13,55.06-31.81,76.46l-44.68-44.7ZM230.16,769.69c2.11-38.39,18.09-74.19,45.5-101.58,27.4-27.4,63.22-43.34,101.6-45.45-4.43,79.1-68,142.65-147.1,147.03Z"/>
    </g>
    <g id="_Radial_Repeat_-3" data-name="&amp;lt;Radial Repeat&amp;gt;">
      <path class="cls-2" d="M106.06,488.14c-26.86-24.05-61.19-37.2-97.52-37.21H.02L0,548.79h8.53c36.33.02,70.64-13.11,97.52-37.16,67.84,61.77,173.29,59.88,238.87-5.65l6.02-6.02-6.02-6.04c-32.69-32.71-76.17-50.74-122.42-50.74-43.47-.02-84.51,15.88-116.43,44.96ZM17.07,468.26c28.43,1.84,55.1,12.86,76.54,31.64-21.45,18.74-48.13,29.74-76.56,31.57l.02-63.2ZM118.5,499.89c28.63-25.65,65.25-39.67,104-39.65,38.75,0,75.35,14.05,103.98,39.7-59.06,52.8-148.95,52.78-207.98-.05Z"/>
    </g>
    <g id="_Radial_Repeat_-4" data-name="&amp;lt;Radial Repeat&amp;gt;">
      <path class="cls-2" d="M229.83,213.06c-1.99-36-16.97-69.57-42.64-95.27l-6.03-6.03-69.21,69.18,6.03,6.03c25.67,25.7,59.22,40.68,95.23,42.68,4.29,91.65,80.19,164.88,172.9,164.91h8.51v-8.53c.02-46.25-17.97-89.73-50.67-122.44-30.73-30.75-70.98-48.53-114.12-50.54ZM180.96,136.07c18.8,21.41,29.87,48.06,31.75,76.49-28.42-1.92-55.06-13-76.46-31.81l44.7-44.68ZM230.31,230.16c38.39,2.11,74.19,18.09,101.58,45.5,27.4,27.4,43.34,63.22,45.45,101.6-79.1-4.43-142.65-68-147.03-147.1Z"/>
    </g>
    <g id="_Radial_Repeat_-5" data-name="&amp;lt;Radial Repeat&amp;gt;">
      <path class="cls-2" d="M511.86,106.06c24.05-26.86,37.2-61.19,37.21-97.52V.02l-97.86-.02v8.53c-.02,36.33,13.11,70.64,37.16,97.52-61.77,67.84-59.88,173.29,5.65,238.87l6.02,6.02,6.04-6.02c32.71-32.69,50.74-76.17,50.74-122.42.02-43.47-15.88-84.51-44.96-116.43ZM531.74,17.07c-1.84,28.43-12.86,55.1-31.64,76.54-18.74-21.45-29.74-48.13-31.57-76.56l63.2.02ZM500.11,118.49c25.65,28.63,39.67,65.25,39.65,104,0,38.75-14.05,75.35-39.7,103.98-52.8-59.06-52.78-148.95.05-207.98Z"/>
    </g>
    <g id="_Radial_Repeat_-6" data-name="&amp;lt;Radial Repeat&amp;gt;">
      <path class="cls-2" d="M786.94,229.83c36-1.99,69.57-16.97,95.27-42.64l6.03-6.03-69.18-69.21-6.03,6.03c-25.7,25.67-40.68,59.22-42.68,95.23-91.65,4.29-164.88,80.19-164.91,172.9v8.51h8.53c46.25.02,89.73-17.97,122.44-50.67,30.75-30.73,48.53-70.98,50.54-114.12ZM863.93,180.96c-21.41,18.8-48.06,29.87-76.49,31.75,1.92-28.42,13-55.06,31.81-76.46l44.68,44.7ZM769.84,230.31c-2.11,38.39-18.09,74.19-45.5,101.58-27.4,27.4-63.22,43.34-101.6,45.45,4.43-79.1,68-142.65,147.1-147.03Z"/>
    </g>
    <g id="_Radial_Repeat_-7" data-name="&amp;lt;Radial Repeat&amp;gt;">
      <path class="cls-2" d="M893.94,511.86c26.86,24.05,61.19,37.2,97.52,37.21h8.53l.02-97.86h-8.53c-36.33-.02-70.64,13.11-97.52,37.16-67.84-61.77-173.29-59.88-238.87,5.65l-6.02,6.02,6.02,6.04c32.69,32.71,76.17,50.74,122.42,50.74,43.47.02,84.51-15.88,116.43-44.96ZM982.93,531.74c-28.43-1.84-55.1-12.86-76.54-31.64,21.45-18.74,48.13-29.74,76.56-31.57l-.02,63.2ZM881.5,500.11c-28.63,25.65-65.25,39.67-104,39.65-38.75,0-75.35-14.05-103.98-39.7,59.06-52.8,148.95-52.78,207.98.05Z"/>
    </g>
    <g id="_Radial_Repeat_-8" data-name="&amp;lt;Radial Repeat&amp;gt;">
      <path class="cls-2" d="M770.17,786.94c1.99,36,16.97,69.57,42.64,95.27l6.03,6.03,69.21-69.18-6.03-6.03c-25.67-25.7-59.22-40.68-95.23-42.68-4.29-91.65-80.19-164.88-172.9-164.91h-8.51v8.53c-.02,46.25,17.97,89.73,50.67,122.44,30.73,30.75,70.98,48.53,114.12,50.54ZM819.04,863.93c-18.8-21.41-29.87-48.06-31.75-76.49,28.42,1.92,55.06,13,76.46,31.81l-44.7,44.68ZM769.69,769.84c-38.39-2.11-74.19-18.09-101.58-45.5-27.4-27.4-43.34-63.22-45.45-101.6,79.1,4.43,142.65,68,147.03,147.1Z"/>
    </g>
  </g>
  <path class="cls-2" d="M500,370.51c-71.41,0-129.5,58.09-129.5,129.5s58.09,129.48,129.5,129.48,129.5-58.09,129.5-129.48-58.1-129.5-129.5-129.5ZM500,612.43c-61.99,0-112.44-50.43-112.44-112.42s50.45-112.44,112.44-112.44,112.44,50.43,112.44,112.44-50.45,112.42-112.44,112.42Z"/>
  <circle class="cls-1" cx="500" cy="500" r="63.66"/>
</svg>